<svg width="25" height="17" viewBox="0 0 25 17" fill="none" xmlns="http://www.w3.org/2000/svg">
<path d="M22.0528 0H2.125C0.955683 0 0 0.951481 0 2.125V14.875C0 16.0489 0.956297 17 2.125 17H22.0528C23.2221 17 24.1778 16.0485 24.1778 14.875V2.125C24.1778 0.951197 23.2216 0 22.0528 0ZM21.7265 1.41667C21.0394 2.10597 12.9693 10.2024 12.6378 10.535C12.3609 10.8128 11.817 10.8129 11.54 10.535L2.45131 1.41667H21.7265ZM1.41667 14.6146V2.38543L7.5114 8.5L1.41667 14.6146ZM2.45131 15.5833L8.51152 9.50338L10.5366 11.5351C11.3665 12.3677 12.8116 12.3674 13.6412 11.5351L15.6663 9.50342L21.7265 15.5833H2.45131ZM22.7611 14.6146L16.6664 8.5L22.7611 2.38543V14.6146Z" fill="#868181"/>
</svg>
