<svg width="130" height="130" viewBox="0 0 130 130" fill="none" xmlns="http://www.w3.org/2000/svg">
<g clip-path="url(#clip0_2126_2365)">
<path d="M65 0C29.1576 0 0 29.1576 0 65C0 77.2266 3.39853 89.0967 9.84141 99.4043C7.27543 108.401 2.63682 125.415 2.58807 125.593C2.47024 126.025 2.47062 126.481 2.58917 126.912C2.70771 127.344 2.94007 127.736 3.26193 128.047C3.58429 128.356 3.98332 128.575 4.41797 128.679C4.85262 128.783 5.30721 128.77 5.73498 128.64L31.4991 120.713C41.5919 126.792 53.1494 130 65 130C100.842 130 130 100.842 130 65C130 29.1576 100.842 0 65 0Z" fill="#868181"/>
<path d="M65 125C53.7037 125 42.6976 121.843 33.1713 115.872C32.8668 115.682 32.5251 115.559 32.1692 115.512C31.8133 115.466 31.4515 115.496 31.1083 115.601L8.61068 122.525C10.2636 116.492 13.2323 105.701 14.9558 99.6999C15.0544 99.3557 15.0782 98.9944 15.0256 98.6402C14.9729 98.286 14.8451 97.9472 14.6506 97.6466C8.33722 87.9321 4.99988 76.6432 4.99988 65.0001C4.99988 31.9166 31.9165 5 65 5C98.0834 5 125 31.9166 125 65.0001C125 98.0836 98.0834 125 65 125Z" fill="#EDE6DC"/>
<path d="M107.463 80.3148C102.849 77.7514 98.9183 75.1831 96.0496 73.308C93.8597 71.8772 92.2776 70.8446 91.118 70.2637C87.8759 68.645 85.4173 69.7901 84.4822 70.7324C84.3654 70.8485 84.2607 70.9761 84.1696 71.1132C80.8028 76.1644 76.4034 80.9986 75.1168 81.2573C73.63 81.0255 66.6671 77.0678 59.7456 71.3037C52.6802 65.4151 48.2368 59.7778 47.5825 55.9398C52.1162 51.2743 53.7494 48.3396 53.7494 44.9997C53.7494 41.5573 45.7196 27.1849 44.267 25.7321C42.8095 24.2769 39.5283 24.0499 34.5086 25.0486C34.0249 25.1457 33.5807 25.3835 33.2317 25.7321C32.6244 26.3402 18.4107 40.8324 25.1659 58.3984C32.5804 77.6757 51.6135 100.083 75.8788 103.723C78.6352 104.136 81.2207 104.341 83.6425 104.341C97.9174 104.341 106.343 97.1582 108.716 82.9102C108.801 82.4012 108.726 81.8784 108.501 81.4137C108.277 80.949 107.914 80.5651 107.463 80.3148Z" fill="#868181"/>
<path d="M76.621 98.777C50.962 94.9293 34.7973 69.5069 29.8339 56.6016C24.9097 43.8012 33.9917 32.3901 36.272 29.8097C38.1275 29.4948 40.078 29.3628 40.8936 29.4898C42.5953 31.8579 48.4912 42.9955 48.75 45.0001C48.75 46.3136 48.3226 48.1397 43.2323 53.2325C43.0001 53.4646 42.8159 53.7401 42.6902 54.0434C42.5645 54.3466 42.4998 54.6717 42.4998 55C42.4998 68.0909 70.1096 86.25 74.9998 86.25C79.2527 86.25 84.7973 79.1015 87.9538 74.4459C88.1369 74.4533 88.4446 74.5167 88.8816 74.7364C89.7825 75.1881 91.3425 76.2062 93.3153 77.4951C95.9204 79.1967 99.3799 81.4575 103.464 83.7988C101.609 92.7246 96.4257 101.753 76.621 98.777Z" fill="#EDE6DC"/>
</g>
<defs>
<clipPath id="clip0_2126_2365">
<rect width="130" height="130" fill="white"/>
</clipPath>
</defs>
</svg>
