<svg width="45" height="28" viewBox="0 0 45 28" fill="none" xmlns="http://www.w3.org/2000/svg">
<path d="M13.7911 27.5822C21.4077 27.5822 27.5822 21.4077 27.5822 13.7911C27.5822 6.17449 21.4077 0 13.7911 0C6.17449 0 0 6.17449 0 13.7911C0 21.4077 6.17449 27.5822 13.7911 27.5822Z" fill="#868181"/>
<path d="M31.1626 27.5822C38.7792 27.5822 44.9537 21.4077 44.9537 13.7911C44.9537 6.17449 38.7792 0 31.1626 0C23.5459 0 17.3715 6.17449 17.3715 13.7911C17.3715 21.4077 23.5459 27.5822 31.1626 27.5822Z" fill="#9FBAE1"/>
<path fill-rule="evenodd" clip-rule="evenodd" d="M22.4768 3.18251C24.0688 4.46906 25.3529 6.09541 26.2351 7.94246C27.1172 9.7895 27.575 11.8105 27.575 13.8574C27.575 15.9042 27.1172 17.9252 26.2351 19.7723C25.3529 21.6193 24.0688 23.2456 22.4768 24.5322C20.8729 23.2462 19.5783 21.6163 18.6888 19.7629C17.7992 17.9096 17.3374 15.88 17.3374 13.8242C17.3374 11.7684 17.7992 9.73885 18.6888 7.88546C19.5783 6.03208 20.8729 4.4685 22.4768 3.18251Z" fill="#ADACA6"/>
<mask id="mask0_2126_2351" style="mask-type:luminance" maskUnits="userSpaceOnUse" x="17" y="3" width="11" height="22">
<path d="M22.4768 3.18251C24.0688 4.46906 25.3529 6.09541 26.2351 7.94246C27.1172 9.7895 27.575 11.8105 27.575 13.8574C27.575 15.9042 27.1172 17.9252 26.2351 19.7723C25.3529 21.6193 24.0688 23.2456 22.4768 24.5322C20.8729 23.2462 19.5783 21.6163 18.6888 19.7629C17.7992 17.9096 17.3374 15.88 17.3374 13.8242C17.3374 11.7684 17.7992 9.73885 18.6888 7.88546C19.5783 6.03208 20.8729 4.4685 22.4768 3.18251Z" fill="white"/>
</mask>
<g mask="url(#mask0_2126_2351)">
<path fill-rule="evenodd" clip-rule="evenodd" d="M14.8519 5.83447H31.2952V7.62466H14.8519V5.83447ZM14.8519 9.34855H31.2952V11.1387H14.8519V9.34855ZM14.8519 12.9289H31.2952V14.7191H14.8519V12.9289ZM14.8519 16.443H31.2952V18.2332H14.8519V16.443ZM14.8519 19.9571H31.2952V21.7473H14.8519V19.9571Z" fill="white"/>
</g>
</svg>
