<svg width="73" height="23" viewBox="0 0 73 23" fill="none" xmlns="http://www.w3.org/2000/svg">
<path d="M29.2296 0.374023L25.5196 22.1455H31.4531L35.1661 0.374023H29.2296ZM20.5445 0.398442L14.733 15.246L14.1134 13.0041C12.9673 10.3029 9.71366 6.42353 5.8938 3.9787L11.2077 22.1348L17.4861 22.1242L26.8305 0.393864L20.5445 0.398442Z" fill="#868181"/>
<path d="M11.8609 1.95647C11.516 0.630283 10.5164 0.23502 9.2757 0.18771H0.0763056L0 0.621127C7.15899 2.35784 11.896 6.54244 13.8617 11.574L11.8609 1.95647ZM47.1919 4.54781C48.7141 4.51392 50.2266 4.79771 51.6329 5.38107L52.1686 5.63288L52.9713 0.914139C51.7962 0.473093 49.9542 0 47.6559 0C41.7926 0 37.6598 2.95302 37.6278 7.18493C37.5896 10.3119 40.5717 12.0578 42.8242 13.1001C45.1363 14.1684 45.9115 14.8475 45.9008 15.8014C45.8825 17.2588 44.0573 17.9272 42.3526 17.9272C39.9765 17.9272 38.7144 17.5991 36.7655 16.7872L36.001 16.4393L35.1662 21.3121C36.5549 21.9211 39.1173 22.4445 41.7773 22.472C48.0145 22.472 52.0679 19.5541 52.1106 15.0322C52.1365 12.5584 50.554 10.6706 47.1248 9.12156C45.0493 8.11128 43.7795 7.43979 43.7918 6.42035C43.7918 5.51536 44.8692 4.54781 47.1919 4.54781ZM68.1989 0.398314H63.6144C62.1906 0.398314 61.1314 0.785947 60.5057 2.20523L51.6955 22.1576H57.9266C57.9266 22.1576 58.943 19.4747 59.1734 18.8871L66.7719 18.8963C66.949 19.6563 67.4953 22.1576 67.4953 22.1576H73L68.1989 0.398314ZM60.8812 14.4309C61.3695 13.181 63.2451 8.3463 63.2451 8.3463C63.2131 8.40582 63.7289 7.08726 64.0356 6.26774L64.4355 8.14485L65.8105 14.4309H60.8812Z" fill="#868181"/>
</svg>
